<?xml version="1.0" standalone="no"?>
<!DOCTYPE svg PUBLIC "-//W3C//DTD SVG 20010904//EN"
 "http://www.w3.org/TR/2001/REC-SVG-20010904/DTD/svg10.dtd">
<svg version="1.0" xmlns="http://www.w3.org/2000/svg"
 width="300.000000pt" height="300.000000pt" viewBox="0 0 300.000000 300.000000"
 preserveAspectRatio="xMidYMid meet">
<metadata>
Created by potrace 1.11, written by Peter Selinger 2001-2013
</metadata>
<g transform="translate(0.000000,300.000000) scale(0.100000,-0.100000)"
fill="#000000" stroke="none">
<path d="M1565 2406 c-22 -19 -40 -40 -40 -47 0 -9 -15 -15 -40 -17 -30 -2
-50 -12 -78 -40 -58 -55 -71 -101 -70 -247 0 -102 10 -146 34 -152 26 -7 24
-16 -11 -52 -18 -20 -43 -34 -65 -38 -19 -3 -38 -10 -41 -14 -3 -5 -18 -9 -33
-9 -15 0 -31 -4 -36 -9 -6 -5 -53 -12 -105 -15 -156 -10 -174 -12 -210 -35
-19 -12 -47 -20 -61 -19 -15 1 -33 -2 -40 -8 -8 -6 -21 -12 -29 -12 -57 -4
-111 -17 -121 -28 -6 -8 -29 -14 -50 -14 -28 0 -39 -4 -39 -15 0 -11 -11 -15
-39 -15 -22 0 -44 -6 -51 -15 -7 -8 -26 -15 -42 -15 -21 0 -31 -6 -35 -20 -4
-16 -14 -20 -48 -20 -35 0 -45 -4 -50 -20 -5 -15 -15 -20 -40 -20 -22 0 -41
-8 -54 -21 -15 -16 -28 -20 -56 -17 -31 3 -36 1 -41 -19 -5 -18 -13 -23 -40
-23 l-34 0 0 -276 c0 -151 3 -273 8 -271 440 266 870 464 1250 576 257 76 585
114 747 88 198 -33 466 -175 645 -343 34 -32 40 -34 150 -44 63 -5 127 -10
143 -10 l27 0 0 74 0 74 -50 51 c-27 28 -52 51 -55 51 -3 0 -16 10 -28 23 -84
86 -313 216 -482 272 -84 28 -242 61 -342 71 -66 6 -73 9 -73 28 0 12 10 27
21 34 17 11 20 20 16 48 -5 27 -2 36 15 45 16 9 19 17 13 46 -4 22 -2 40 6 50
19 22 21 155 2 168 -12 9 -12 15 -2 39 10 21 10 32 1 47 -7 10 -12 28 -12 39
0 12 -17 39 -37 61 l-38 39 -155 15 c-85 8 -157 15 -160 15 -3 0 -23 -16 -45
-34z"/>
</g>
</svg>
